<?xml version="1.0" standalone="no"?>
<!DOCTYPE svg PUBLIC "-//W3C//DTD SVG 20010904//EN"
 "http://www.w3.org/TR/2001/REC-SVG-20010904/DTD/svg10.dtd">
<svg version="1.0" xmlns="http://www.w3.org/2000/svg"
 width="330.000000pt" height="330.000000pt" viewBox="0 0 330.000000 330.000000"
 preserveAspectRatio="xMidYMid meet">
<metadata>
Created by potrace 1.14, written by Peter Selinger 2001-2017
</metadata>
<g transform="translate(0.000000,330.000000) scale(0.100000,-0.100000)"
fill="#000000" stroke="none">
<path d="M0 1650 l0 -1650 1650 0 1650 0 0 35 0 35 -70 0 c-56 0 -70 3 -70 15
0 12 14 15 70 15 l70 0 0 225 c0 193 -2 225 -15 226 -8 1 -25 2 -37 2 -13 1
-26 8 -30 17 -4 8 -7 122 -7 253 l-1 237 45 0 c33 0 45 4 45 15 0 13 -24 15
-159 15 -136 0 -160 2 -165 16 -9 23 -8 27 9 21 8 -4 17 -3 19 2 7 11 -27 10
-41 -1 -7 -6 -20 -5 -33 2 -12 6 -24 9 -28 6 -3 -3 0 -6 6 -6 14 0 12 -22 -3
-32 -5 -4 -17 -8 -25 -8 -13 0 -13 1 0 10 12 7 12 10 1 10 -8 0 -11 6 -7 16 5
12 3 14 -6 8 -12 -8 -33 -10 -48 -4 -19 7 -59 5 -78 -3 -18 -8 -25 -8 -32 3
-6 10 -10 7 -16 -14 -4 -18 -12 -26 -23 -24 -9 2 -16 8 -16 13 0 16 -15 35
-28 35 -7 0 -6 -4 3 -10 13 -8 13 -10 -2 -10 -9 0 -20 5 -23 10 -3 6 -12 10
-18 10 -8 0 -8 -3 -2 -8 18 -13 15 -31 -6 -37 -14 -5 -25 -2 -30 6 -6 10 -9 6
-9 -13 l0 -28 324 0 324 0 1 -255 2 -256 -226 1 c-187 1 -227 4 -232 16 -7 19
-33 18 -33 -1 0 -8 7 -15 16 -15 9 0 14 -6 11 -12 -5 -15 -39 -11 -49 5 -6 9
-8 8 -8 -1 0 -7 7 -15 15 -18 8 -4 12 -10 9 -15 -3 -5 -2 -9 3 -8 26 5 33 -4
33 -41 0 -29 -4 -40 -15 -40 -9 0 -15 -9 -15 -25 0 -14 -4 -25 -10 -25 -5 0
-10 -7 -10 -15 0 -8 -7 -15 -15 -15 -8 0 -15 -7 -15 -15 0 -9 -9 -15 -24 -15
-13 0 -31 -3 -40 -6 -12 -4 -16 0 -16 15 0 16 -6 21 -25 21 -15 0 -25 6 -25
15 0 9 -6 12 -15 9 -9 -4 -15 0 -15 10 0 10 -6 13 -15 10 -11 -5 -15 1 -15 25
0 17 -4 31 -10 31 -6 0 -10 43 -10 110 0 67 4 110 10 110 6 0 10 11 10 25 0
14 -5 25 -11 25 -5 0 -8 -4 -5 -9 3 -5 -3 -11 -14 -14 -11 -3 -20 0 -21 6 -1
20 -1 251 0 270 1 9 8 17 17 17 14 0 14 2 3 16 -9 11 -26 15 -56 12 -31 -2
-43 1 -43 10 0 9 -6 12 -15 8 -12 -4 -15 3 -15 29 0 19 -4 35 -10 35 -5 0 -10
-7 -10 -15 0 -8 -7 -15 -15 -15 -8 0 -15 7 -15 15 0 8 -7 15 -15 15 -11 0 -15
11 -15 40 0 22 -4 40 -10 40 -5 0 -10 -7 -10 -15 0 -8 -7 -15 -15 -15 -8 0
-15 7 -15 15 0 8 -7 15 -15 15 -8 0 -15 -7 -15 -15 0 -8 -4 -15 -10 -15 -5 0
-10 7 -10 15 0 8 -7 15 -15 15 -8 0 -15 7 -15 15 0 8 -7 15 -15 15 -8 0 -15
-7 -15 -15 0 -8 7 -15 15 -15 8 0 15 -6 15 -14 0 -8 11 -17 25 -20 16 -4 25
-13 25 -26 0 -16 7 -20 30 -20 30 0 30 -1 30 -55 0 -40 -4 -55 -14 -55 -8 0
-17 7 -20 16 -9 23 -29 5 -23 -22 3 -16 0 -24 -9 -24 -18 0 -19 56 -1 64 10 5
10 7 0 12 -7 3 -13 12 -13 20 0 8 -7 14 -15 14 -8 0 -15 -7 -15 -15 0 -8 7
-15 15 -15 8 0 15 -4 15 -10 0 -5 -7 -10 -16 -10 -9 0 -14 -8 -13 -18 5 -52
-2 -142 -12 -142 -14 0 -39 25 -39 39 0 6 -13 11 -30 11 -20 0 -30 5 -30 15 0
8 -4 15 -10 15 -5 0 -10 -13 -10 -30 0 -20 -5 -30 -15 -30 -8 0 -15 -4 -15
-10 0 -5 -7 -10 -15 -10 -8 0 -15 -7 -15 -15 0 -8 -4 -15 -10 -15 -5 0 -10 -7
-10 -15 0 -8 -7 -15 -15 -15 -8 0 -15 -4 -15 -10 0 -6 -52 -10 -135 -10 -83 0
-135 4 -135 10 0 6 -11 10 -25 10 -14 0 -25 -4 -25 -10 0 -5 5 -10 10 -10 6 0
10 -7 10 -15 0 -8 7 -15 15 -15 8 0 15 -7 15 -16 0 -10 6 -14 15 -10 11 4 15
-2 15 -24 0 -17 5 -30 10 -30 6 0 10 -11 10 -24 0 -13 7 -26 15 -30 8 -3 15
-16 15 -30 0 -13 7 -26 15 -30 11 -4 15 -21 15 -66 l0 -60 -40 0 c-29 0 -40
-4 -40 -15 0 -9 9 -15 25 -15 20 0 25 -5 25 -25 0 -16 -6 -25 -15 -25 -9 0
-15 -9 -15 -25 0 -14 -4 -25 -10 -25 -5 0 -10 -18 -10 -40 0 -22 5 -40 10 -40
6 0 10 -13 10 -30 0 -16 -4 -30 -10 -30 -5 0 -10 7 -10 15 0 8 -7 15 -15 15
-8 0 -15 -7 -15 -15 0 -8 -7 -15 -15 -15 -8 0 -15 7 -15 15 0 8 -4 15 -10 15
-5 0 -10 7 -10 15 0 12 -17 15 -95 15 -57 0 -95 4 -95 10 0 11 25 13 128 10
l63 -1 -3 38 c-3 33 -7 38 -30 41 -16 2 -28 9 -28 18 0 8 -10 14 -25 14 -16 0
-25 6 -25 16 0 9 -6 14 -12 11 -17 -5 -37 22 -38 51 0 12 -7 25 -15 28 -12 5
-15 27 -15 110 0 86 3 104 15 104 8 0 15 9 15 19 0 30 -19 35 -26 6 -7 -28
-34 -34 -34 -7 -1 9 -3 42 -5 72 -3 30 -7 94 -11 142 l-6 88 -118 0 c-96 0
-119 3 -124 15 -4 12 -24 15 -86 15 -52 0 -79 4 -75 10 4 7 -10 9 -37 8 -35
-2 -42 0 -40 13 1 12 -7 16 -35 17 -22 1 -40 8 -46 17 -6 12 -20 15 -45 13
-28 -2 -37 1 -37 12 0 9 -11 16 -29 18 -30 4 -56 23 -56 41 0 6 -7 11 -15 11
-8 0 -14 6 -13 12 2 7 -3 12 -9 10 -21 -4 -17 125 3 146 13 12 14 17 4 20 -7
3 -17 -3 -22 -12 -5 -9 -15 -16 -22 -16 -8 0 -20 -8 -27 -17 -12 -15 -12 -16
5 -10 16 6 17 5 6 -8 -9 -11 -14 -48 -14 -108 l-1 -92 -27 -3 -27 -3 -1 210
-1 211 114 0 113 0 -4 -35 c-3 -21 -10 -35 -18 -35 -10 0 -14 -13 -14 -40 0
-33 3 -40 20 -40 13 0 18 -5 14 -15 -5 -12 4 -15 50 -15 33 0 56 4 56 11 0 14
25 39 39 39 6 0 11 9 11 20 0 13 5 18 15 14 8 -4 15 -1 15 6 0 14 25 40 39 40
6 0 11 9 11 20 0 13 5 18 15 14 8 -4 15 -1 15 6 0 14 25 40 39 40 6 0 11 9 11
20 0 13 5 18 15 14 9 -4 15 0 15 10 0 9 5 16 10 16 6 0 10 11 10 25 0 16 6 25
15 25 8 0 15 7 15 15 0 8 7 15 15 15 9 0 15 9 15 25 0 14 5 25 10 25 6 0 10
11 10 25 0 16 6 25 15 25 10 0 15 10 15 26 0 15 8 33 17 40 17 13 17 13 1 14
-13 0 -18 8 -18 30 0 20 -5 30 -15 30 -8 0 -15 -7 -15 -15 0 -9 -9 -15 -25
-15 -16 0 -25 -6 -25 -15 0 -8 -7 -15 -15 -15 -8 0 -15 7 -15 15 0 8 7 15 15
15 9 0 15 9 15 25 0 14 6 25 13 25 16 0 37 46 37 82 0 26 -3 28 -40 28 -29 0
-40 4 -40 15 0 8 7 15 15 15 8 0 15 5 15 10 0 6 7 10 15 10 19 0 19 19 0 26
-8 4 -15 12 -15 20 0 8 7 14 15 14 8 0 15 5 15 11 0 14 25 39 39 39 6 0 11 7
11 15 0 8 7 15 15 15 8 0 15 7 15 15 0 9 9 15 25 15 14 0 25 5 25 10 0 6 11
10 25 10 16 0 25 6 25 15 0 10 10 15 30 15 20 0 30 5 30 15 0 11 11 15 40 15
22 0 40 5 40 10 0 6 18 10 40 10 l40 0 0 -50 c0 -27 5 -50 10 -50 6 0 10 23
10 50 l0 50 70 0 c68 0 70 -1 70 -25 0 -14 5 -25 10 -25 6 0 10 -18 10 -40 0
-29 4 -40 15 -40 8 0 15 -7 15 -15 0 -8 7 -15 15 -15 8 0 15 -4 15 -10 0 -5
11 -10 25 -10 15 0 25 -6 25 -14 0 -12 24 -15 135 -15 114 -1 135 1 135 14 0
13 -19 15 -120 14 -95 -1 -123 2 -135 14 -20 20 -19 64 1 75 11 6 14 20 12 48
-2 32 -7 40 -25 42 -24 3 -26 12 -23 70 1 21 -4 34 -14 38 -21 8 -21 54 -1 54
9 0 15 -9 15 -25 0 -14 5 -25 10 -25 6 0 10 14 10 30 0 19 5 29 13 28 7 -2 12
9 12 28 0 24 4 30 17 26 15 -4 18 3 18 42 0 25 5 46 10 46 6 0 10 -20 10 -45
0 -33 4 -45 15 -45 17 0 17 -1 19 -62 1 -37 4 -43 24 -46 15 -2 22 2 22 12 0
9 7 16 15 16 8 0 15 5 15 10 0 6 7 10 15 10 8 0 15 7 15 15 0 8 5 15 11 15 14
0 10 90 -5 109 -8 10 -8 15 2 18 6 3 12 11 12 19 0 9 11 14 30 14 20 0 30 5
30 15 0 9 9 15 25 15 14 0 25 5 25 10 0 6 25 10 55 10 l55 0 0 -65 0 -65 -70
0 c-56 0 -70 -3 -70 -15 0 -8 -4 -15 -10 -15 -5 0 -10 7 -10 15 0 8 -7 15 -15
15 -12 0 -15 -17 -15 -95 0 -78 3 -95 15 -95 8 0 15 7 15 15 0 9 9 15 25 15
24 0 25 2 25 65 l0 65 55 0 55 0 0 -80 0 -80 -30 0 c-16 0 -30 -4 -30 -10 0
-5 14 -10 30 -10 l30 0 0 -80 0 -80 -40 0 c-29 0 -40 -4 -40 -15 0 -11 11 -15
40 -15 36 0 40 -2 40 -25 0 -14 5 -25 10 -25 6 0 10 11 10 25 l0 25 135 0 135
0 0 -70 0 -70 -95 0 c-57 0 -95 -4 -95 -10 0 -5 7 -10 15 -10 8 0 15 -7 15
-15 0 -8 7 -15 15 -15 8 0 15 -5 15 -11 0 -14 25 -39 39 -39 6 0 11 -13 11
-30 0 -20 5 -30 15 -30 9 0 15 -9 15 -25 0 -14 5 -25 10 -25 6 0 10 -7 10 -15
0 -8 7 -15 15 -15 9 0 15 -9 15 -25 0 -25 0 -25 95 -25 78 0 95 -3 95 -15 0
-11 -13 -15 -54 -15 -30 0 -58 -5 -61 -10 -5 -8 -11 -7 -21 1 -8 6 -18 8 -22
4 -4 -4 -1 -10 6 -12 6 -3 12 -18 12 -34 0 -19 5 -29 15 -29 8 0 15 -4 15 -10
0 -6 101 -11 268 -12 l267 -3 3 -80 c4 -115 22 -121 22 -7 l0 92 85 0 85 0 0
50 0 50 -85 0 c-69 0 -85 3 -85 15 0 12 16 15 85 15 l85 0 0 145 c0 122 -2
145 -15 145 -12 0 -15 14 -15 70 0 56 3 70 15 70 8 0 15 7 15 15 0 8 -7 15
-15 15 -12 0 -15 16 -15 80 0 64 3 80 15 80 8 0 15 5 15 10 0 6 -7 10 -15 10
-12 0 -15 16 -15 80 0 64 3 80 15 80 8 0 15 7 15 15 0 8 -7 15 -15 15 -12 0
-15 16 -15 80 0 64 3 80 15 80 13 0 15 34 15 250 l0 250 -1650 0 -1650 0 0
-1650z m1315 1491 c-3 -5 -1 -12 5 -16 5 -3 10 0 10 7 0 9 3 9 8 2 4 -6 14
-14 22 -17 12 -4 11 -6 -3 -6 -15 -1 -13 -7 15 -35 28 -28 34 -31 40 -17 6 14
7 14 7 -1 1 -10 7 -18 14 -18 8 0 9 -2 1 -8 -8 -5 0 -18 22 -40 19 -19 34 -28
34 -20 0 10 2 10 9 -2 6 -8 8 -17 5 -22 -7 -11 51 -38 81 -38 14 0 28 -7 31
-15 4 -9 19 -15 40 -15 24 0 34 -5 34 -15 0 -9 9 -15 25 -15 14 0 25 -4 25
-10 0 -5 5 -10 10 -10 17 0 50 -39 50 -59 0 -10 -7 -21 -15 -25 -8 -3 -15 -11
-15 -19 0 -8 -10 -12 -27 -11 -16 1 -40 3 -55 3 -18 1 -28 6 -28 16 0 13 -32
15 -229 15 -191 0 -232 -3 -245 -15 -9 -9 -33 -15 -60 -15 -59 0 -82 21 -78
70 5 45 18 60 53 60 19 0 29 5 29 15 0 8 7 16 15 16 8 1 20 3 25 4 6 1 17 3
26 4 23 2 13 36 -11 36 -27 0 -44 16 -39 38 1 9 -1 18 -7 18 -5 1 -14 2 -21 3
-6 0 -13 8 -15 16 -4 12 -3 12 5 1 11 -15 27 2 17 18 -3 5 2 16 10 24 8 9 15
23 15 31 0 9 7 16 15 16 8 0 15 7 15 15 0 8 7 15 15 15 8 0 15 7 15 15 0 12
13 15 56 15 31 0 53 -4 49 -9z m89 -46 c-4 -8 -11 -12 -16 -9 -6 4 -5 10 3 15
19 12 19 11 13 -6z m46 -36 c0 -6 -4 -7 -10 -4 -5 3 -10 11 -10 16 0 6 5 7 10
4 6 -3 10 -11 10 -16z m33 -44 c-3 -9 -8 -14 -10 -11 -3 3 -2 9 2 15 9 16 15
13 8 -4z m-1043 -15 c0 -5 5 -9 12 -7 7 1 13 -5 13 -13 1 -8 6 -14 12 -13 7 2
10 -6 8 -17 -3 -14 2 -20 16 -20 10 0 19 -5 19 -11 0 -5 4 -8 9 -5 5 3 11 -4
14 -15 3 -12 10 -18 16 -15 6 4 8 -2 6 -14 -3 -14 1 -20 16 -20 10 0 19 -5 19
-11 0 -5 4 -8 9 -5 5 3 11 -4 14 -15 3 -12 10 -18 16 -14 6 3 11 1 11 -4 0
-14 37 -51 50 -51 5 0 7 -7 4 -15 -8 -20 5 -19 30 3 13 10 16 11 9 2 -6 -8
-11 -19 -10 -25 2 -14 30 -45 35 -40 3 3 -1 11 -8 20 -7 8 -8 15 -2 15 5 0 13
-7 16 -16 11 -28 6 -54 -9 -54 -8 0 -15 -7 -15 -15 0 -8 -4 -15 -10 -15 -5 0
-10 -11 -10 -25 0 -15 6 -25 15 -25 9 0 12 -6 9 -15 -4 -10 0 -15 11 -15 9 0
13 5 10 10 -10 16 26 25 37 9 7 -11 11 -11 15 -1 9 22 33 13 33 -13 0 -28 4
-27 -107 -26 -50 0 -73 -4 -73 -12 0 -7 -5 -4 -11 6 -6 9 -7 27 -3 40 5 17 3
19 -6 11 -6 -6 -10 -24 -8 -40 l3 -29 103 -3 102 -3 0 -254 c0 -197 -3 -255
-12 -255 -15 0 -38 -45 -38 -72 0 -10 -6 -17 -12 -15 -8 1 -14 -12 -16 -35 -2
-28 -8 -38 -20 -38 -16 0 -17 24 -14 307 3 340 6 323 -63 331 -16 2 -32 7 -35
11 -3 5 -16 12 -29 16 -18 5 -20 9 -10 16 10 6 9 10 -6 15 -11 5 -30 18 -43
31 -13 13 -28 23 -35 23 -7 0 -6 4 3 10 12 7 11 10 -5 16 -11 5 -30 18 -43 31
-13 13 -28 23 -35 23 -7 0 -6 4 3 10 12 7 11 10 -5 16 -11 5 -30 18 -43 31
-13 13 -28 23 -35 23 -7 0 -6 4 3 10 12 7 11 10 -5 16 -11 5 -30 18 -43 31
-13 13 -28 23 -35 23 -7 0 -6 4 3 10 13 8 11 11 -7 16 -13 4 -23 11 -23 16 0
6 -7 7 -16 4 -12 -5 -14 -1 -9 15 5 15 4 19 -5 14 -7 -4 -4 4 5 19 10 14 21
26 26 26 5 0 9 9 9 20 0 11 7 20 15 20 8 0 15 5 15 10 0 26 27 39 83 40 31 0
57 -4 57 -10z m1110 -24 c0 -2 -7 -7 -16 -10 -8 -3 -12 -2 -9 4 6 10 25 14 25
6z m10 -20 c0 -2 -7 -7 -16 -10 -8 -3 -12 -2 -9 4 6 10 25 14 25 6z m-1370
-211 c0 -52 -1 -55 -25 -55 -20 0 -25 -5 -25 -25 0 -21 -5 -25 -30 -25 -20 0
-30 5 -30 15 0 8 7 15 15 15 9 0 15 9 15 25 0 16 -6 25 -15 25 -11 0 -15 11
-15 40 l0 40 55 0 55 0 0 -55z m1900 40 c0 -9 -9 -15 -25 -15 -14 0 -25 -4
-25 -10 0 -5 -13 -10 -30 -10 -20 0 -30 -5 -30 -15 0 -8 -4 -15 -10 -15 -5 0
-10 -7 -10 -15 0 -8 -7 -15 -15 -15 -9 0 -15 -9 -15 -25 0 -16 6 -25 15 -25 9
0 15 -9 15 -25 0 -16 -6 -25 -15 -25 -9 0 -15 9 -15 25 0 16 -6 25 -15 25 -8
0 -15 8 -16 18 0 9 -2 28 -5 42 -3 21 -2 22 7 7 17 -28 29 -10 29 44 l0 49 80
0 c64 0 80 -3 80 -15z m400 -65 l0 -80 -40 0 -40 0 0 40 c0 29 -4 40 -15 40
-8 0 -15 7 -15 15 0 11 -12 15 -50 15 -27 0 -50 5 -50 10 0 6 -13 10 -30 10
-20 0 -30 5 -30 15 0 13 22 15 135 15 l135 0 0 -80z m560 0 l0 -80 -90 0 -90
0 0 80 0 80 90 0 90 0 0 -80z m-2345 50 c3 -5 1 -10 -4 -10 -6 0 -11 5 -11 10
0 6 2 10 4 10 3 0 8 -4 11 -10z m73 -45 c-3 -3 -9 2 -12 12 -6 14 -5 15 5 6 7
-7 10 -15 7 -18z m1502 -30 c0 -54 0 -55 -30 -55 -30 0 -30 1 -30 55 0 54 0
55 30 55 30 0 30 -1 30 -55z m87 3 c-3 -8 -6 -5 -6 6 -1 11 2 17 5 13 3 -3 4
-12 1 -19z m-579 -23 c-3 -3 -9 2 -12 12 -6 14 -5 15 5 6 7 -7 10 -15 7 -18z
m-158 5 c0 -5 7 -10 15 -10 10 0 15 -10 15 -30 0 -23 5 -30 19 -30 14 0 17 -6
13 -25 -5 -28 -27 -34 -36 -10 -3 8 -12 15 -20 15 -9 0 -13 7 -11 20 2 11 0
20 -6 20 -5 0 -9 14 -9 30 0 17 5 30 10 30 6 0 10 -4 10 -10z m126 -4 c18 -19
18 -62 -1 -70 -12 -4 -15 3 -15 30 0 21 -4 33 -10 29 -5 -3 -10 1 -10 9 0 20
17 21 36 2z m-1306 -56 c0 -5 -5 -10 -11 -10 -5 0 -7 5 -4 10 3 6 8 10 11 10
2 0 4 -4 4 -10z m2040 -90 l0 -80 -135 0 -135 0 0 80 0 80 135 0 135 0 0 -80z
m560 0 l0 -80 -90 0 -90 0 0 80 0 80 90 0 90 0 0 -80z m-560 -180 l0 -80 -135
0 -135 0 0 80 0 80 135 0 135 0 0 -80z m560 0 l0 -80 -90 0 -90 0 0 80 0 80
90 0 90 0 0 -80z m-2650 35 c0 -17 16 -20 25 -5 3 6 12 10 18 10 8 0 8 -3 2
-8 -14 -10 -17 -32 -5 -32 6 0 10 5 10 12 0 14 10 5 15 -14 10 -44 19 -58 34
-56 9 2 20 8 24 13 5 6 5 0 2 -13 -5 -15 -3 -22 6 -20 7 2 14 -1 15 -7 9 -51
34 -68 57 -40 5 6 5 0 2 -13 -5 -15 -3 -22 6 -20 7 2 13 -4 14 -12 0 -8 6 -15
14 -15 11 0 13 -32 13 -165 -1 -143 -3 -165 -16 -164 -39 3 -41 4 -26 14 13 8
13 10 -1 10 -9 0 -20 7 -23 16 -3 9 -12 14 -20 11 -9 -4 -13 0 -12 11 3 18
-15 42 -26 36 -4 -3 -12 5 -18 16 -6 12 -18 19 -25 16 -9 -3 -12 1 -10 12 4
21 -15 40 -37 36 -9 -1 -15 5 -14 15 0 9 -6 15 -15 15 -10 -1 -16 5 -15 14 3
18 -15 42 -26 36 -4 -3 -12 5 -18 16 -6 12 -17 19 -25 16 -8 -3 -12 2 -11 12
3 16 -22 52 -37 52 -4 0 -19 11 -33 25 -14 14 -29 25 -34 25 -5 0 -1 16 10 35
11 20 20 44 20 55 0 11 7 20 15 20 8 0 15 5 15 10 0 6 7 10 15 10 8 0 15 7 15
15 0 11 12 15 50 15 38 0 50 -4 50 -15z m2650 -215 l0 -70 -90 0 -90 0 0 70 0
70 90 0 90 0 0 -70z m-2380 36 c0 -3 -4 -8 -10 -11 -5 -3 -10 -1 -10 4 0 6 5
11 10 11 6 0 10 -2 10 -4z m350 -221 c0 -8 -7 -15 -15 -15 -8 0 -15 -7 -15
-15 0 -8 -4 -15 -10 -15 -5 0 -10 7 -10 15 0 8 5 15 10 15 6 0 10 7 10 15 0 8
7 15 15 15 8 0 15 -7 15 -15z m-960 -190 c0 -8 -7 -15 -15 -15 -8 0 -15 7 -15
15 0 8 7 15 15 15 8 0 15 -7 15 -15z m290 0 c0 -11 -11 -15 -40 -15 -29 0 -40
4 -40 15 0 11 11 15 40 15 29 0 40 -4 40 -15z m2540 0 c0 -12 -17 -15 -95 -15
-78 0 -95 3 -95 15 0 12 17 15 95 15 78 0 95 -3 95 -15z m220 0 c0 -12 -17
-15 -95 -15 -78 0 -95 3 -95 15 0 12 17 15 95 15 78 0 95 -3 95 -15z m-2680
-48 c0 -8 -7 -14 -15 -14 -8 0 -15 6 -15 14 0 7 7 13 15 13 8 0 15 -6 15 -13z
m-50 -462 l0 -225 -39 0 c-25 0 -41 -5 -45 -15 -3 -9 -18 -15 -36 -15 -21 0
-29 4 -24 12 4 7 3 8 -4 4 -7 -4 -12 -14 -12 -23 0 -11 -7 -14 -26 -10 -20 3
-28 0 -31 -14 -3 -11 -9 -19 -14 -19 -5 0 -9 -7 -9 -15 0 -8 -9 -15 -21 -15
-11 0 -17 -4 -14 -10 3 -5 -1 -10 -9 -10 -9 0 -16 -4 -16 -10 0 -5 -8 -19 -17
-30 -13 -14 -19 -16 -25 -7 -9 15 -11 611 -1 620 3 4 82 7 175 7 l168 0 0
-225z m2430 -163 c0 -2 -7 -10 -15 -18 -12 -13 -15 -12 -24 5 -9 16 -7 19 14
17 14 0 25 -2 25 -4z m-2646 -288 c3 -8 2 -12 -4 -9 -6 3 -10 10 -10 16 0 14
7 11 14 -7z m191 7 c3 -5 2 -12 -3 -15 -5 -3 -9 1 -9 9 0 17 3 19 12 6z m-205
-61 c0 -5 -2 -10 -4 -10 -3 0 -8 5 -11 10 -3 6 -1 10 4 10 6 0 11 -4 11 -10z
m-25 -20 c3 -5 1 -10 -4 -10 -6 0 -11 5 -11 10 0 6 2 10 4 10 3 0 8 -4 11 -10z
m233 -31 c-2 -6 3 -14 10 -16 6 -3 12 2 12 11 0 12 10 16 40 16 36 0 40 -2 40
-25 0 -14 5 -25 10 -25 6 0 10 -17 10 -37 -1 -39 -19 -73 -39 -73 -6 0 -11
-17 -11 -40 0 -38 6 -44 40 -42 3 0 6 -11 6 -24 1 -13 -2 -24 -7 -24 -5 0 -9
-13 -9 -30 0 -20 -5 -30 -15 -30 -9 0 -15 -9 -15 -25 0 -16 -6 -25 -15 -25 -8
0 -15 -5 -15 -11 0 -17 -27 -39 -49 -39 -11 0 -24 -7 -29 -16 -12 -22 -122
-22 -134 1 -5 8 -18 15 -28 15 -11 0 -20 5 -20 10 0 6 -7 10 -15 10 -9 0 -15
9 -15 23 0 12 -9 30 -20 40 -12 10 -18 22 -14 28 4 6 2 14 -4 18 -6 3 -12 28
-13 55 -2 28 -8 50 -16 53 -8 3 -13 24 -13 58 l0 54 35 -6 c26 -4 36 -2 41 11
9 22 114 24 114 1 0 -9 -9 -15 -25 -15 -14 0 -25 -4 -25 -10 0 -5 11 -10 25
-10 16 0 25 -6 25 -15 0 -9 10 -15 26 -15 31 0 28 23 -4 28 -34 5 -26 22 11
22 31 0 67 27 67 50 0 6 6 10 14 10 8 0 13 8 11 18 -2 17 2 32 11 32 2 0 3 -5
2 -11z m-223 -19 c3 -5 1 -10 -4 -10 -6 0 -11 5 -11 10 0 6 2 10 4 10 3 0 8
-4 11 -10z m-49 -20 c8 0 14 5 14 10 0 6 6 6 13 -2 18 -16 -1 -38 -32 -38 -16
0 -21 6 -20 28 0 15 3 21 6 15 2 -7 11 -13 19 -13z m2054 -15 c0 -8 7 -15 16
-15 12 0 15 -7 12 -24 -4 -18 0 -26 14 -29 12 -4 18 -14 18 -36 0 -17 5 -31
10 -31 6 0 10 -27 10 -60 l0 -60 -40 0 c-29 0 -40 4 -40 15 0 8 -4 15 -10 15
-5 0 -10 -7 -10 -15 0 -8 5 -15 10 -15 6 0 10 -7 10 -15 0 -10 10 -15 30 -15
25 0 30 -4 30 -25 0 -16 -6 -25 -15 -25 -8 0 -15 -9 -15 -20 0 -11 -7 -23 -15
-26 -10 -4 -15 -20 -15 -45 0 -28 4 -39 15 -39 10 0 15 -10 15 -30 0 -36 -26
-42 -33 -8 l-4 23 -8 -22 c-8 -26 -35 -31 -35 -8 0 8 -7 15 -15 15 -8 0 -15
-7 -15 -15 0 -8 -4 -15 -10 -15 -5 0 -10 7 -10 15 0 8 -7 15 -15 15 -12 0 -15
16 -15 80 0 64 3 80 15 80 8 0 15 7 15 15 0 8 5 15 10 15 6 0 10 11 10 25 0
15 6 25 14 25 11 0 15 19 18 80 3 72 1 80 -15 80 -13 0 -17 6 -15 23 2 12 9
21 16 20 6 -2 12 6 12 17 0 11 7 20 15 20 8 0 15 7 15 15 0 8 5 15 10 15 6 0
10 -7 10 -15z m-1040 -270 c0 -8 7 -15 15 -15 20 0 19 -16 -1 -24 -9 -3 -14
-12 -11 -20 4 -10 0 -12 -15 -8 -15 3 -19 1 -16 -9 3 -8 14 -13 26 -13 14 1
19 -3 14 -14 -3 -10 -1 -13 6 -8 8 5 12 0 12 -13 0 -12 -7 -21 -15 -21 -8 0
-15 -7 -15 -15 0 -11 -11 -15 -40 -15 -29 0 -40 4 -40 15 0 8 -7 15 -15 15
-12 0 -15 14 -15 65 0 51 3 65 15 65 8 0 15 7 15 15 0 11 11 15 40 15 29 0 40
-4 40 -15z m-850 -159 c0 -3 -4 -8 -10 -11 -5 -3 -10 -1 -10 4 0 6 5 11 10 11
6 0 10 -2 10 -4z m690 -27 c0 -5 -29 -9 -65 -9 -67 0 -91 16 -32 22 45 4 97
-3 97 -13z m1680 0 c0 -5 -44 -9 -97 -9 -79 1 -95 3 -82 13 19 14 179 11 179
-4z m-2460 -134 c0 -12 -14 -15 -65 -15 -51 0 -65 3 -65 15 0 12 14 15 65 15
51 0 65 -3 65 -15z m220 0 c0 -12 -17 -15 -95 -15 -78 0 -95 3 -95 15 0 12 17
15 95 15 78 0 95 -3 95 -15z m210 0 c0 -12 -17 -15 -95 -15 -78 0 -95 3 -95
15 0 12 17 15 95 15 78 0 95 -3 95 -15z m220 0 c0 -12 -17 -15 -95 -15 -78 0
-95 3 -95 15 0 12 17 15 95 15 78 0 95 -3 95 -15z m180 0 c0 -12 -16 -15 -80
-15 -64 0 -80 3 -80 15 0 12 16 15 80 15 64 0 80 -3 80 -15z m220 0 c0 -12
-17 -15 -95 -15 -78 0 -95 3 -95 15 0 12 17 15 95 15 78 0 95 -3 95 -15z m210
0 c0 -12 -17 -15 -95 -15 -78 0 -95 3 -95 15 0 12 17 15 95 15 78 0 95 -3 95
-15z m210 0 c0 -12 -17 -15 -90 -15 -73 0 -90 3 -90 15 0 12 17 15 90 15 73 0
90 -3 90 -15z m220 0 c0 -12 -17 -15 -95 -15 -78 0 -95 3 -95 15 0 12 17 15
95 15 78 0 95 -3 95 -15z m210 1 c0 -10 -16 -15 -57 -18 -84 -5 -123 1 -123
18 0 11 18 14 90 14 71 0 90 -3 90 -14z m220 -1 c0 -12 -17 -15 -95 -15 -78 0
-95 3 -95 15 0 12 17 15 95 15 78 0 95 -3 95 -15z m210 0 c0 -12 -17 -15 -95
-15 -78 0 -95 3 -95 15 0 12 17 15 95 15 78 0 95 -3 95 -15z m210 0 c0 -12
-17 -15 -90 -15 -73 0 -90 3 -90 15 0 12 17 15 90 15 73 0 90 -3 90 -15z m220
0 c0 -12 -17 -15 -95 -15 -78 0 -95 3 -95 15 0 12 17 15 95 15 78 0 95 -3 95
-15z m210 1 c0 -10 -16 -15 -57 -18 -84 -5 -123 1 -123 18 0 11 18 14 90 14
71 0 90 -3 90 -14z"/>
<path d="M1160 2950 c0 -5 5 -10 10 -10 6 0 10 5 10 10 0 6 -4 10 -10 10 -5 0
-10 -4 -10 -10z"/>
<path d="M705 2540 c4 -6 11 -8 16 -5 14 9 11 15 -7 15 -8 0 -12 -5 -9 -10z"/>
<path d="M120 620 c-12 -8 -9 -10 13 -10 15 0 27 5 27 10 0 13 -20 13 -40 0z"/>
<path d="M1806 2334 c-3 -9 -6 -33 -6 -55 l0 -39 50 0 50 0 0 39 c0 61 -7 71
-50 71 -25 0 -40 -5 -44 -16z"/>
<path d="M1934 2306 c-3 -8 -4 -25 -2 -38 2 -19 10 -24 41 -26 l37 -3 0 40 c0
40 -1 41 -35 41 -22 0 -38 -6 -41 -14z"/>
<path d="M2066 2313 c-12 -12 -6 -43 9 -43 8 0 15 9 15 19 0 21 -13 34 -24 24z"/>
<path d="M2066 2232 c-3 -6 -1 -14 5 -17 15 -10 25 3 12 16 -7 7 -13 7 -17 1z"/>
<path d="M1470 1985 c0 -9 -9 -15 -25 -15 -16 0 -25 -6 -25 -15 0 -8 -5 -15
-11 -15 -19 0 -39 -28 -39 -54 0 -16 -6 -26 -15 -26 -9 0 -15 -9 -15 -25 0
-16 6 -25 15 -25 9 0 15 9 15 25 0 14 5 25 10 25 6 0 10 7 10 15 0 8 7 15 15
15 8 0 15 -7 15 -15 0 -8 5 -15 11 -15 6 0 17 -6 25 -14 16 -17 19 -36 4 -36
-5 0 -10 -18 -10 -40 0 -22 5 -40 10 -40 6 0 10 -7 10 -15 0 -11 11 -15 40
-15 29 0 40 4 40 15 0 8 7 15 15 15 8 0 15 7 15 15 0 9 9 15 25 15 21 0 25 -5
25 -30 0 -25 -4 -30 -25 -30 -14 0 -25 -4 -25 -10 0 -5 -28 -10 -62 -12 -38
-2 -63 -8 -66 -15 -3 -10 14 -13 62 -13 52 0 66 3 66 15 0 9 9 15 25 15 14 0
25 5 25 10 0 6 7 10 15 10 10 0 15 10 15 30 0 20 5 30 15 30 11 0 15 12 15 50
0 38 -4 50 -15 50 -8 0 -15 7 -15 15 0 8 -7 15 -15 15 -8 0 -15 6 -15 14 0 8
-10 16 -22 18 -15 2 -24 11 -26 26 -3 16 -10 22 -28 22 -15 0 -24 6 -24 15 0
10 -10 15 -30 15 -20 0 -30 -5 -30 -15z m70 -166 c0 -4 -7 -6 -15 -3 -8 4 -15
10 -15 15 0 4 7 6 15 3 8 -4 15 -10 15 -15z"/>
<path d="M1934 1985 c-4 -8 -17 -15 -30 -15 -15 0 -24 -6 -24 -15 0 -8 -7 -15
-15 -15 -8 0 -15 -4 -15 -10 0 -5 -7 -10 -15 -10 -12 0 -15 -16 -15 -80 l0
-80 55 0 c42 0 55 -3 55 -15 0 -8 7 -15 15 -15 8 0 15 -7 15 -15 0 -11 11 -15
40 -15 29 0 40 4 40 15 0 8 5 15 10 15 6 0 10 11 10 25 0 14 -4 25 -10 25 -11
0 -13 39 -4 64 3 9 15 16 25 16 10 0 19 7 19 15 0 8 7 15 15 15 9 0 15 9 15
25 0 21 -5 25 -30 25 -20 0 -30 5 -30 15 0 8 -4 15 -10 15 -5 0 -10 7 -10 15
0 11 -12 15 -50 15 -36 0 -52 -4 -56 -15z"/>
<path d="M2300 1875 c0 -51 3 -65 15 -65 12 0 15 -13 15 -55 0 -42 3 -55 15
-55 11 0 15 -12 15 -50 0 -27 5 -50 10 -50 6 0 10 -7 10 -15 0 -8 7 -15 15
-15 8 0 15 -7 15 -15 0 -8 -7 -15 -15 -15 -8 0 -15 -7 -15 -15 0 -8 -4 -15
-10 -15 -5 0 -10 -11 -10 -25 0 -14 5 -25 10 -25 6 0 10 -4 10 -10 0 -5 -7
-10 -16 -10 -8 0 -13 -4 -10 -9 4 -5 0 -12 -6 -14 -10 -4 -10 -6 -1 -6 7 -1
10 -8 7 -16 -4 -9 0 -15 10 -15 9 0 15 -3 15 -7 -6 -36 3 -50 28 -50 15 0 29
-6 31 -12 2 -6 15 -11 28 -11 18 0 25 -5 23 -17 -1 -10 -1 -57 0 -105 1 -77 3
-88 19 -88 15 0 17 9 13 81 l-3 82 26 -5 c20 -4 26 -1 26 13 0 11 -7 19 -15
19 -12 0 -15 17 -15 90 0 53 -4 90 -10 90 -5 0 -10 11 -10 25 0 14 5 25 10 25
6 0 10 7 10 15 0 8 -4 15 -10 15 -5 0 -10 25 -10 55 0 42 -3 55 -15 55 -9 0
-15 9 -15 25 0 16 -6 25 -15 25 -9 0 -15 10 -15 26 0 26 -20 54 -39 54 -6 0
-11 18 -11 40 0 29 -4 40 -15 40 -8 0 -15 7 -15 15 0 8 -4 15 -10 15 -5 0 -10
7 -10 15 0 8 -7 15 -15 15 -8 0 -15 5 -15 10 0 6 -7 10 -15 10 -12 0 -15 -14
-15 -65z"/>
<path d="M1150 1835 c0 -30 -4 -55 -10 -55 -5 0 -10 -11 -10 -25 0 -14 5 -25
10 -25 6 0 10 11 10 25 0 16 6 25 15 25 12 0 15 13 15 55 0 42 -3 55 -15 55
-12 0 -15 -13 -15 -55z"/>
<path d="M1100 1706 c0 -17 5 -26 16 -26 10 0 14 7 12 22 -5 32 -28 35 -28 4z"/>
<path d="M1850 1715 c0 -8 7 -15 15 -15 8 0 15 -4 15 -10 0 -5 11 -10 25 -10
16 0 25 -6 25 -15 0 -12 14 -15 65 -15 51 0 65 3 65 15 0 12 -14 15 -65 15
-37 0 -65 4 -65 10 0 6 -11 10 -25 10 -16 0 -25 6 -25 15 0 8 -7 15 -15 15 -8
0 -15 -7 -15 -15z"/>
<path d="M1070 1655 c0 -27 -20 -55 -39 -55 -6 0 -11 -7 -11 -15 0 -8 -7 -15
-15 -15 -8 0 -15 -5 -15 -11 0 -15 -22 -35 -50 -44 -28 -9 -50 -29 -50 -44 0
-6 -7 -11 -15 -11 -12 0 -15 -20 -15 -120 l0 -120 -39 0 c-26 0 -41 5 -45 16
-5 14 -26 11 -26 -4 0 -10 50 -32 72 -32 10 0 17 -6 16 -12 -2 -9 23 -15 87
-19 50 -3 83 -6 75 -7 -25 -4 10 -22 43 -22 23 0 27 4 27 30 0 20 5 30 15 30
8 0 15 5 15 10 0 6 -7 10 -15 10 -8 0 -15 -4 -15 -10 0 -5 -4 -10 -10 -10 -6
0 -10 42 -10 106 0 80 -3 105 -12 102 -7 -3 -14 -14 -16 -26 -5 -31 -32 -28
-32 3 0 14 -4 25 -10 25 -5 0 -10 11 -10 25 0 14 5 25 10 25 6 0 10 7 10 15 0
8 7 15 16 15 8 0 12 5 9 10 -3 6 3 10 14 10 17 0 20 8 23 48 2 38 7 49 26 57
16 7 22 17 20 34 -4 34 -28 40 -28 6z m-50 -340 c0 -8 -7 -15 -15 -15 -8 0
-15 7 -15 15 0 8 7 15 15 15 8 0 15 -7 15 -15z"/>
<path d="M1470 1585 c0 -8 -4 -15 -10 -15 -5 0 -10 -7 -10 -15 0 -8 -7 -15
-15 -15 -8 0 -15 -7 -15 -15 0 -8 -7 -15 -15 -15 -11 0 -15 -12 -15 -50 0 -36
4 -52 15 -56 8 -4 15 -15 15 -25 0 -10 7 -19 15 -19 8 0 15 -7 15 -15 0 -11
12 -15 50 -15 38 0 50 -4 50 -15 0 -13 29 -15 204 -15 172 0 205 2 210 15 3 9
19 15 41 15 24 0 35 4 35 15 0 8 4 15 9 15 5 0 11 10 13 23 2 12 9 21 16 19 9
-1 12 21 12 83 0 69 -3 85 -15 85 -8 0 -15 7 -15 15 0 11 -12 15 -50 15 -38 0
-50 -4 -50 -15 0 -13 -25 -15 -165 -15 -140 0 -165 2 -165 15 0 12 -16 15 -80
15 -64 0 -80 -3 -80 -15z m30 -85 c0 -5 11 -10 25 -10 16 0 25 -6 25 -15 0 -9
-9 -15 -25 -15 -16 0 -25 6 -25 15 0 8 -7 15 -15 15 -8 0 -15 5 -15 10 0 6 7
10 15 10 8 0 15 -4 15 -10z m480 -25 c0 -8 -4 -15 -10 -15 -5 0 -10 7 -10 15
0 8 5 15 10 15 6 0 10 -7 10 -15z m-50 -25 c0 -5 7 -10 15 -10 8 0 15 -7 15
-15 0 -13 -29 -15 -205 -15 -176 0 -205 2 -205 15 0 8 7 15 15 15 8 0 15 5 15
10 0 6 65 10 175 10 110 0 175 -4 175 -10z"/>
<path d="M3080 1500 c0 -5 5 -10 10 -10 6 0 10 5 10 10 0 6 -4 10 -10 10 -5 0
-10 -4 -10 -10z"/>
<path d="M2280 1435 c0 -14 5 -25 10 -25 6 0 10 11 10 25 0 14 -4 25 -10 25
-5 0 -10 -11 -10 -25z"/>
<path d="M2816 1363 c-6 -14 -5 -15 5 -6 7 7 10 15 7 18 -3 3 -9 -2 -12 -12z"/>
<path d="M465 1350 c3 -5 11 -10 16 -10 6 0 7 5 4 10 -3 6 -11 10 -16 10 -6 0
-7 -4 -4 -10z"/>
<path d="M1102 1323 c3 -36 5 -38 41 -41 21 -2 37 1 37 7 0 6 7 11 15 11 17 0
20 16 5 25 -6 3 -13 -1 -16 -9 -3 -9 -17 -16 -30 -16 -20 0 -24 5 -24 30 0 21
-5 30 -16 30 -12 0 -14 -9 -12 -37z"/>
<path d="M2831 1324 c0 -11 3 -14 6 -6 3 7 2 16 -1 19 -3 4 -6 -2 -5 -13z"/>
<path d="M670 1310 c0 -5 7 -10 15 -10 8 0 15 -4 15 -10 0 -5 7 -10 15 -10 8
0 15 5 15 10 0 6 -7 10 -15 10 -8 0 -15 5 -15 10 0 6 -7 10 -15 10 -8 0 -15
-4 -15 -10z"/>
<path d="M2616 1302 c-3 -5 1 -9 9 -9 8 0 12 4 9 9 -3 4 -7 8 -9 8 -2 0 -6 -4
-9 -8z"/>
<path d="M2200 1289 c0 -5 5 -7 10 -4 6 3 10 8 10 11 0 2 -4 4 -10 4 -5 0 -10
-5 -10 -11z"/>
<path d="M2280 1276 c0 -13 -7 -26 -15 -30 -24 -9 -17 -26 10 -26 23 0 25 4
25 40 0 22 -4 40 -10 40 -5 0 -10 -11 -10 -24z"/>
<path d="M737 1273 c-4 -3 -7 -11 -7 -17 0 -6 5 -5 12 2 6 6 9 14 7 17 -3 3
-9 2 -12 -2z"/>
<path d="M1210 1265 c0 -8 5 -15 10 -15 6 0 10 -11 10 -25 0 -14 -4 -25 -10
-25 -5 0 -10 -7 -10 -15 0 -8 -7 -15 -15 -15 -8 0 -15 -7 -15 -15 0 -8 -5 -15
-11 -15 -5 0 -7 -4 -4 -10 10 -16 114 -12 131 4 16 17 19 36 4 36 -5 0 -10 7
-10 15 0 8 -7 15 -15 15 -8 0 -15 5 -15 10 0 6 12 10 26 10 30 0 28 23 -2 29
-10 2 -23 9 -27 17 -11 19 -47 18 -47 -1z"/>
<path d="M2220 1265 c0 -8 7 -15 15 -15 8 0 15 7 15 15 0 8 -7 15 -15 15 -8 0
-15 -7 -15 -15z"/>
<path d="M2610 1271 c0 -5 5 -13 10 -16 6 -3 10 -2 10 4 0 5 -4 13 -10 16 -5
3 -10 2 -10 -4z"/>
<path d="M1180 1235 c0 -8 7 -15 15 -15 8 0 15 7 15 15 0 8 -7 15 -15 15 -8 0
-15 -7 -15 -15z"/>
<path d="M2140 1235 c0 -8 7 -15 15 -15 8 0 15 -4 15 -10 0 -5 11 -10 25 -10
14 0 25 5 25 10 0 6 -11 10 -25 10 -16 0 -25 6 -25 15 0 8 -7 15 -15 15 -8 0
-15 -7 -15 -15z"/>
<path d="M1130 1170 c0 -16 5 -30 10 -30 6 0 10 14 10 30 0 17 -4 30 -10 30
-5 0 -10 -13 -10 -30z"/>
<path d="M1340 1185 c0 -8 7 -15 15 -15 8 0 15 7 15 15 0 8 -7 15 -15 15 -8 0
-15 -7 -15 -15z"/>
<path d="M1340 1130 c0 -5 7 -10 15 -10 8 0 15 5 15 10 0 6 -7 10 -15 10 -8 0
-15 -4 -15 -10z"/>
<path d="M3020 1128 c0 -9 -8 -18 -17 -21 -10 -2 54 -4 142 -3 150 0 152 0 30
3 -107 3 -132 6 -142 20 -12 15 -13 15 -13 1z"/>
<path d="M2040 1045 c0 -8 -8 -15 -17 -15 -13 0 -14 -3 -6 -11 16 -16 43 -3
43 21 0 11 -4 20 -10 20 -5 0 -10 -7 -10 -15z"/>
<path d="M3165 1020 c3 -5 8 -10 11 -10 2 0 4 5 4 10 0 6 -5 10 -11 10 -5 0
-7 -4 -4 -10z"/>
<path d="M3261 1010 c-9 -5 -10 -10 -2 -14 14 -9 14 -36 0 -36 -5 0 -8 4 -4 9
3 5 2 12 -3 15 -4 2 -7 -14 -6 -37 1 -23 7 -43 13 -45 8 -3 9 -8 1 -17 -8 -9
-6 -14 6 -19 9 -3 20 -4 25 0 13 8 11 64 -3 64 -9 0 -9 3 0 12 29 29 5 89 -27
68z"/>
<path d="M3270 840 c-8 -5 -12 -12 -9 -15 4 -3 12 1 19 10 14 17 11 19 -10 5z"/>
<path d="M2635 810 c-3 -5 -1 -10 4 -10 6 0 11 5 11 10 0 6 -2 10 -4 10 -3 0
-8 -4 -11 -10z"/>
<path d="M1391 751 c-13 -12 -18 -22 -11 -26 5 -3 10 -2 10 4 0 5 12 11 28 13
15 2 26 8 25 13 -4 18 -29 16 -52 -4z"/>
<path d="M2490 754 c0 -8 -7 -14 -16 -14 -18 0 -14 -22 6 -28 7 -3 10 0 6 6
-8 14 24 31 44 24 12 -4 13 -2 3 9 -18 18 -43 20 -43 3z"/>
<path d="M1420 565 c0 -8 7 -15 15 -15 8 0 15 7 15 15 0 8 -7 15 -15 15 -8 0
-15 -7 -15 -15z"/>
<path d="M1610 565 c0 -8 5 -15 10 -15 6 0 10 7 10 15 0 8 -4 15 -10 15 -5 0
-10 -7 -10 -15z"/>
<path d="M2520 565 c0 -8 5 -15 10 -15 6 0 10 7 10 15 0 8 -4 15 -10 15 -5 0
-10 -7 -10 -15z"/>
<path d="M1478 543 c7 -3 16 -2 19 1 4 3 -2 6 -13 5 -11 0 -14 -3 -6 -6z"/>
<path d="M2580 539 c0 -5 5 -7 10 -4 6 3 10 8 10 11 0 2 -4 4 -10 4 -5 0 -10
-5 -10 -11z"/>
<path d="M1396 523 c-15 -15 -3 -23 30 -21 31 2 60 17 37 19 -4 0 -20 2 -35 4
-14 2 -29 1 -32 -2z"/>
<path d="M1610 520 c0 -5 -7 -7 -15 -4 -8 4 -15 2 -15 -4 0 -6 8 -9 18 -7 9 2
20 4 25 4 11 1 8 21 -3 21 -5 0 -10 -4 -10 -10z"/>
<path d="M2495 520 c-7 -11 -6 -11 43 -15 31 -2 42 8 22 20 -5 3 -10 1 -10 -6
0 -10 -3 -10 -12 -1 -15 15 -35 16 -43 2z"/>
<path d="M1457 443 c-17 -17 -2 -23 59 -23 48 0 65 3 62 12 -5 14 -110 23
-121 11z"/>
<path d="M2542 438 c3 -8 29 -14 71 -16 55 -2 67 0 67 13 0 12 -14 15 -71 15
-52 0 -70 -3 -67 -12z"/>
</g>
</svg>
