<svg xmlns="http://www.w3.org/2000/svg" stroke-linecap="round" stroke-linejoin="round" stroke-width="2" viewBox="0 0 512 512">
          <g stroke="none" strokeWidth="1" fill="none" fillRule="evenodd">
            <path d="M421.712213,58.0060761 L443.712213,96.1111939 L423.13934,107.988682 C441.443114,140.865109 452,179.570432 452,221 C452,340.293506 364.471669,437 256.5,437 C148.528331,437 61,340.293506 61,221 C61,180.728831 70.9747845,143.031692 88.3435336,110.760026 L68.6087804,98.9024789 L91.2704557,61.1871176 L154.700836,99.2999352 L135.392703,131.433564 C124.935036,154.071858 119,179.976891 119,207.5 C119,296.141702 180.560847,368 256.5,368 C332.439153,368 394,296.141702 394,207.5 C394,171.590261 383.896941,138.434932 366.827745,111.695654 L367.103,111.419076 L357.626334,95.0060761 L421.712213,58.0060761 Z M256.5,386 C247.387302,386 240,393.387302 240,402.5 C240,411.612698 247.387302,419 256.5,419 C265.612698,419 273,411.612698 273,402.5 C273,393.387302 265.612698,386 256.5,386 Z M319.5,369 C310.387302,369 303,376.387302 303,385.5 C303,394.612698 310.387302,402 319.5,402 C328.612698,402 336,394.612698 336,385.5 C336,376.387302 328.612698,369 319.5,369 Z M193.5,369 C184.387302,369 177,376.387302 177,385.5 C177,394.612698 184.387302,402 193.5,402 C202.612698,402 210,394.612698 210,385.5 C210,376.387302 202.612698,369 193.5,369 Z" id="Combined-Shape" fill="currentColor" />
          </g>
        </svg>
