<svg xmlns="http://www.w3.org/2000/svg" version="1.1" xmlns:xlink="http://www.w3.org/1999/xlink" xmlns:svgjs="http://svgjs.dev/svgjs" width="1000" height="1000"><g clip-path="url(#SvgjsClipPath1036)"><rect width="1000" height="1000" fill="#ef4444"/><g transform="matrix(0.6666666666666666,0,0,0.6666666666666666,100,100)"><svg xmlns="http://www.w3.org/2000/svg" version="1.1" xmlns:xlink="http://www.w3.org/1999/xlink" xmlns:svgjs="http://svgjs.dev/svgjs" width="1200" height="1200"><svg width="1200" height="1200" version="1.1" viewBox="0 0 1200 1200" xmlns="http://www.w3.org/2000/svg" fill="white" stroke="white">
 <path d="m578.34 750.74c-17.531-22.969-35.203-45.75-52.828-67.922-37.781 37.312-76.031 74.156-113.16 109.88-77.859 74.953-150.66 145.08-200.95 202.31-13.078 14.859-18.844 33.656-17.672 51.984 1.1719 18.281 9.3281 36.141 24.188 49.172l0.89062 0.75 0.09375 0.09375c14.719 12.469 33.094 18 51 16.828 18.281-1.1719 36.141-9.3281 49.172-24.188l0.75-0.84375 0.1875-0.1875c50.203-57.328 109.97-138.05 173.86-224.44 27.047-36.562 54.844-74.109 84.562-113.39zm-329.68-635.34 33.375-29.344 221.16 251.81c15.188 17.297 23.766 38.203 26.016 59.578 2.2969 22.031-2.1562 44.578-13.172 64.219-5.6719 10.125-7.875 21.281-6.7031 32.109 1.1719 10.875 5.625 21.328 13.266 30.047 20.344 23.203 42 46.688 64.453 70.266 0.28125 0.32812 0.5625 0.60937 0.84375 0.89062 23.484 24.609 47.859 49.359 72.562 73.969 0.1875 0.1875 0.42188 0.42188 0.60938 0.60938 41.953 41.719 84.938 83.109 126.47 123.14 77.859 74.953 150.66 145.08 200.95 202.31 13.078 14.859 18.844 33.656 17.672 51.984-1.1719 18.281-9.3281 36.141-24.188 49.172-14.859 13.078-33.656 18.844-51.984 17.672-18.281-1.1719-36.141-9.3281-49.172-24.188-50.391-57.375-110.48-138.61-174.74-225.47-53.203-71.906-109.27-147.66-165.42-217.5-0.1875-0.28125-0.42188-0.5625-0.65625-0.79688-22.125-27.516-44.297-54.094-66.281-79.125-7.7344-8.7656-17.531-14.625-28.125-17.156-0.60938-0.14062-1.1719-0.23437-1.7812-0.32812-10.125-2.0625-20.766-1.1719-30.938 2.9062-20.812 8.3438-43.734 9.8438-65.344 4.7344-20.953-4.9688-40.594-16.172-55.688-33.422l-221.06-251.86 33.375-29.344 187.45 213.42c6.2812 7.1719 17.156 7.875 24.328 1.6406 7.1719-6.2812 7.875-17.156 1.6406-24.328l-187.5-213.47 33.375-29.344 187.45 213.42c6.2812 7.1719 17.156 7.875 24.328 1.6406 7.1719-6.2812 7.875-17.156 1.6406-24.328l-187.5-213.47 33.375-29.344 187.45 213.42c6.2812 7.1719 17.156 7.875 24.328 1.6406 7.1719-6.2812 7.875-17.156 1.6406-24.328zm375.14 467.21c15.609 16.219 31.594 32.484 47.812 48.703 7.2188-8.8594 14.297-17.484 21.234-25.781 10.594-12.703 21.656-25.594 33.281-38.812 7.6875-8.7188 17.484-14.531 28.125-17.062s21.984-1.8281 32.719 2.5312c20.812 8.3438 43.734 9.8438 65.344 4.7344 20.953-4.9688 40.594-16.172 55.688-33.422l221.21-251.86-33.375-29.344-187.45 213.42c-6.2812 7.1719-17.156 7.875-24.328 1.6406-7.1719-6.2812-7.875-17.156-1.6406-24.328l187.5-213.47-33.375-29.344-187.45 213.42c-6.2812 7.1719-17.156 7.875-24.328 1.6406-7.1719-6.2812-7.875-17.156-1.6406-24.328l187.5-213.47-33.375-29.344-187.45 213.42c-6.2812 7.1719-17.156 7.875-24.328 1.6406-7.1719-6.2812-7.875-17.156-1.6406-24.328l187.5-213.47-33.375-29.344-221.16 251.81c-15.188 17.297-23.812 38.203-26.016 59.578-2.2969 22.031 2.1562 44.578 13.172 64.219 5.6719 10.125 7.875 21.281 6.7031 32.109-1.1719 10.875-5.625 21.328-13.266 30.047-10.734 12.234-21.281 23.953-31.688 35.25-7.0781 7.6875-14.391 15.562-21.891 23.531z"/>
</svg></svg></g></g><defs><clipPath id="SvgjsClipPath1036"><rect width="1000" height="1000" x="0" y="0" rx="200" ry="200"/></clipPath></defs></svg>